<?xml version="1.0" encoding="UTF-8"?>
<svg width="12px" height="12px" viewBox="0 0 12 12" version="1.1" xmlns="http://www.w3.org/2000/svg" xmlns:xlink="http://www.w3.org/1999/xlink">
    <title>指向icon</title>
    <g id="页面-1" stroke="none" stroke-width="1" fill="none" fill-rule="evenodd">
        <g id="PC弹窗" transform="translate(-1339.000000, -567.000000)">
            <g id="编组-223" transform="translate(903.000000, 165.000000)">
                <g id="uncheck" transform="translate(20.000000, 401.000000)">
                    <g id="View-on-Heco" transform="translate(337.000000, 0.000000)">
                        <g id="指向icon" transform="translate(79.000000, 1.000000)">
                            <rect id="矩形" x="0" y="0" width="12" height="12"></rect>
                            <g id="编组-12" transform="translate(2.182216, 2.097906)" fill="#A06AFF" fill-rule="nonzero">
                                <path d="M1.98993455,0.0353874231 L7.06655734,0.0717668037 C7.35961027,0.0738668384 7.60235713,0.2857972 7.65268294,0.564420847 L7.66225781,0.671751399 L7.66225781,5.72211502 C7.66225781,6.05348587 7.39362866,6.32211502 7.06225781,6.32211502 C6.76770595,6.32211502 6.52272777,6.10986482 6.47192462,5.82996577 L6.46225781,5.72211502 L6.46165699,1.26685409 L1.9813355,1.23535661 C1.68679119,1.23324589 1.44334026,1.01924566 1.39454414,0.738989754 L1.38565043,0.631072493 C1.38776115,0.336528189 1.60176138,0.0930772593 1.88201729,0.0442811331 L1.98993455,0.0353874231 Z" id="路径" transform="translate(4.523954, 3.178751) rotate(-360.000000) translate(-4.523954, -3.178751) "></path>
                                <path d="M3.8855621,-0.995079067 C4.1801132,-0.994403932 4.42460539,-0.781594118 4.47476839,-0.501579633 L4.48418855,-0.393707052 L4.46466289,8.14530559 C4.46390516,8.47667557 4.19466246,8.74468976 3.86329248,8.74393364 C3.56874138,8.74325851 3.32424918,8.53044869 3.27408619,8.25043421 L3.26466603,8.14256163 L3.28419169,-0.396451014 C3.28494941,-0.727820998 3.55419212,-0.995835189 3.8855621,-0.995079067 Z" id="路径" transform="translate(3.874427, 3.874427) rotate(-315.000000) translate(-3.874427, -3.874427) "></path>
                            </g>
                        </g>
                    </g>
                </g>
            </g>
        </g>
    </g>
</svg>