<?xml version="1.0" encoding="UTF-8"?>
<svg width="16px" height="16px" viewBox="0 0 16 16" version="1.1" xmlns="http://www.w3.org/2000/svg" xmlns:xlink="http://www.w3.org/1999/xlink">
    <title>兑换</title>
    <g id="页面-1" stroke="none" stroke-width="1" fill="none" fill-rule="evenodd">
        <g id="兑换1" transform="translate(-180.000000, -599.000000)" fill="#A06AFF" fill-rule="nonzero">
            <g id="编组-29" transform="translate(16.000000, 303.000000)">
                <g id="编组-4" transform="translate(13.000000, 295.000000)">
                    <g id="兑换" transform="translate(151.000000, 1.000000)">
                        <path d="M8,1.6 C11.52,1.6 14.4,4.48 14.4,8 C14.4,11.52 11.52,14.4 8,14.4 C4.48,14.4 1.6,11.52 1.6,8 C1.6,4.48 4.48,1.6 8,1.6 Z M8,0 C3.6,0 0,3.6 0,8 C0,12.4 3.6,16 8,16 C12.4,16 16,12.4 16,8 C16,3.6 12.4,0 8,0 Z" id="形状"></path>
                        <path d="M4.32,6.32 C4.32,6.08 4.48,5.84 4.64,5.6 L7.04,3.76 C7.12,3.76 7.12,3.76 7.2,3.76 C7.28,3.76 7.28,3.76 7.36,3.76 C7.44,3.84 7.44,3.84 7.44,4 L7.12,5.36 L7.12,5.52 L7.2,5.52 L10.96,5.52 C11.44,5.52 11.76,5.84 11.76,6.32 C11.76,6.8 11.44,7.12 10.96,7.12 L5.12,7.12 C4.64,7.12 4.32,6.72 4.32,6.32 Z" id="路径"></path>
                        <path d="M11.68,9.68 C11.68,9.92 11.52,10.16 11.36,10.4 L8.96,12.24 C8.88,12.24 8.88,12.24 8.8,12.24 C8.72,12.24 8.72,12.24 8.64,12.24 C8.56,12.16 8.56,12.08 8.56,12 L8.88,10.64 L8.88,10.48 L8.8,10.48 L5.04,10.48 C4.56,10.48 4.24,10.16 4.24,9.68 C4.24,9.2 4.56,8.88 5.04,8.88 L10.8,8.88 C11.28,8.88 11.68,9.2 11.68,9.68 Z" id="路径"></path>
                    </g>
                </g>
            </g>
        </g>
    </g>
</svg>